<svg xmlns="http://www.w3.org/2000/svg" fill="none" viewBox="0 0 128 128">
    <path d="M102.393,108.757C92.336,112.225 81.777,113.996 71.142,114C45.206,114 23.607,102.715 23.607,65.736C23.607,45.216 30.865,28.48 45.413,19.07C38.469,27.959 34.996,39.903 34.996,54.243C34.996,89.972 56.315,99.382 79.059,99.382C86.608,99.357 94.124,98.437 101.454,96.639L102.393,108.757ZM101.802,16.5L99.961,29.798C92.497,27.063 84.614,25.633 76.663,25.563C68.039,25.107 59.611,28.344 53.504,34.452C57.948,21.709 67.982,14 83.678,14C89.802,14.015 95.899,14.854 101.802,16.5Z" />
    <style>
      path { fill: #A5042F; }
      @media (prefers-color-scheme: dark) {
        path { fill: #FCFAF8; }
      }
    </style>
</svg>
