<?xml version="1.0" encoding="UTF-8" standalone="no"?>
<!DOCTYPE svg PUBLIC "-//W3C//DTD SVG 1.1//EN" "http://www.w3.org/Graphics/SVG/1.1/DTD/svg11.dtd">
<svg width="100%" height="100%" viewBox="0 0 40 50" version="1.1" xmlns="http://www.w3.org/2000/svg" xmlns:xlink="http://www.w3.org/1999/xlink" xml:space="preserve" xmlns:serif="http://www.serif.com/" style="fill-rule:evenodd;clip-rule:evenodd;stroke-linejoin:round;stroke-miterlimit:2;">
    <g>
        <g id="unicepta">
            <path d="M38.595,46.128C33.848,47.765 28.864,48.601 23.844,48.603C11.601,48.603 1.406,43.276 1.406,25.821C1.406,16.135 4.832,8.235 11.699,3.793C8.421,7.989 6.782,13.627 6.782,20.396C6.782,37.261 16.845,41.703 27.581,41.703C31.144,41.691 34.692,41.257 38.152,40.408L38.595,46.128ZM38.316,2.58L37.447,8.857C33.924,7.566 30.203,6.891 26.45,6.858C22.379,6.643 18.401,8.171 15.518,11.054C17.616,5.039 22.352,1.4 29.761,1.4C32.652,1.407 35.53,1.803 38.316,2.58Z" style="fill:rgb(165,4,47);"/>
        </g>
    </g>
</svg>
