<?xml version="1.0" encoding="UTF-8" standalone="no"?>
<!DOCTYPE svg PUBLIC "-//W3C//DTD SVG 1.1//EN" "http://www.w3.org/Graphics/SVG/1.1/DTD/svg11.dtd">
<svg width="100%" height="100%" viewBox="0 0 480 90" version="1.1" xmlns="http://www.w3.org/2000/svg" xmlns:xlink="http://www.w3.org/1999/xlink" xml:space="preserve" xmlns:serif="http://www.serif.com/" style="fill-rule:evenodd;clip-rule:evenodd;stroke-linejoin:round;stroke-miterlimit:2;">
    <g>
        <g>
            <path d="M221.201,64.939C216.455,66.577 211.471,67.413 206.45,67.414C194.207,67.414 184.013,62.088 184.013,44.632C184.013,34.946 187.438,27.046 194.305,22.604C191.027,26.8 189.388,32.438 189.388,39.207C189.388,56.073 199.452,60.514 210.187,60.514C213.75,60.503 217.299,60.068 220.759,59.219L221.201,64.939ZM220.923,21.392L220.054,27.669C216.53,26.377 212.81,25.702 209.056,25.669C204.985,25.455 201.007,26.982 198.124,29.865C200.222,23.85 204.959,20.211 212.367,20.211C215.258,20.218 218.136,20.615 220.923,21.392Z" style="fill:var(--logo-highlight);"/>
        </g>
        <g>
            <path d="M479.08,66.447L471.147,66.431C471.054,63.414 471.208,60.393 471.606,57.4L471.426,57.4C468.812,63.532 462.665,67.45 456.003,67.234C448.529,67.234 443.416,63.219 443.416,56.007C443.416,46.075 453.544,39.781 470.688,39.781L470.688,36.405C470.688,30.111 468.23,26.735 460.756,26.735C455.952,26.807 451.243,28.092 447.07,30.472L446.251,23.44C451.274,21.319 456.665,20.207 462.116,20.162C475.163,20.162 478.9,26.276 478.9,35.307L478.9,53.335C478.9,57.679 478.998,62.514 479.08,66.447ZM470.688,46.37L470.688,45.55C454.905,45.55 451.447,50.385 451.447,54.499C451.447,58.318 454.184,60.793 458.38,60.793C465.771,60.793 470.688,53.483 470.688,46.37ZM414.897,66.251C412.017,66.851 409.085,67.159 406.145,67.169C396.835,67.169 394.016,63.415 394.016,53.581L394.016,27.489L384.707,27.489L384.707,21.113L414.897,21.113L414.897,27.489L402.228,27.489L402.228,50.664C402.228,58.138 403.588,60.154 408.702,60.154C410.791,60.118 412.87,59.842 414.897,59.334L414.897,66.251ZM359.581,41.633L359.565,41.633C359.565,57.777 350.96,66.988 336.209,66.988C333.647,67.034 331.086,66.854 328.555,66.447L328.555,89L320.36,89L320.36,21.146L328.293,21.146C328.324,24.232 328.078,27.315 327.555,30.357L327.736,30.439C330.129,24.173 336.275,20.095 342.978,20.326C353.55,20.326 359.581,27.767 359.581,41.633ZM351.009,42.354C351.009,32.602 347.813,27.03 340.962,27.03C332.767,27.03 328.572,36.618 328.572,44.55L328.572,59.514C331.173,60.278 333.875,60.642 336.586,60.596C345.256,60.596 351.009,55.466 351.009,42.354ZM287.449,39.355C287.438,40.664 287.349,41.972 287.187,43.272L257.538,43.272C257.112,55.401 262.192,60.596 271.862,60.596C276.42,60.599 280.928,59.639 285.089,57.777L285.81,64.431C280.934,66.364 275.729,67.326 270.486,67.267C256.538,67.267 249.048,59.973 249.048,44.01C249.048,30.406 256.538,20.293 269.306,20.293C282.073,20.293 287.449,28.947 287.449,39.355ZM279.058,37.437C279.238,30.783 275.321,26.308 268.945,26.308C263.012,26.308 258.815,30.783 257.898,37.437L279.058,37.437ZM156.084,21.113L156.084,66.447L147.873,66.447L147.873,21.113L156.084,21.113ZM111.52,66.447L103.292,66.447L103.292,37.159C103.292,30.783 101.555,27.03 95.54,27.03C88.05,27.03 82.674,34.602 82.674,44.649L82.674,66.447L74.479,66.447L74.479,21.113L82.412,21.113C82.441,24.286 82.199,27.454 81.69,30.586L81.871,30.685C84.432,24.179 90.847,19.964 97.834,20.195C108.242,20.195 111.52,26.669 111.52,34.7L111.52,66.447ZM38.011,66.447L29.931,66.447C29.951,63.271 30.192,60.1 30.652,56.958L30.472,56.859C27.91,63.364 21.495,67.58 14.508,67.349C4.199,67.349 0.921,60.875 0.921,52.844L0.921,21.113L9.116,21.113L9.116,50.385C9.116,56.777 10.935,60.514 16.868,60.514C24.342,60.514 29.816,52.942 29.816,42.911L29.816,21.113L38.011,21.113L38.011,66.447Z" style="fill:var(--gray-200);"/>
        </g>
    </g>
</svg>
